<svg width="24" height="24" viewBox="0 0 24 24" fill="none" xmlns="http://www.w3.org/2000/svg">
<path d="M15.4164 16.1331C15.7964 16.1331 16.1044 15.8226 16.1044 15.4396C16.1044 15.0566 15.7964 14.7461 15.4164 14.7461V16.1331ZM8.79256 14.7461C8.41255 14.7461 8.10449 15.0566 8.10449 15.4396C8.10449 15.8226 8.41255 16.1331 8.79256 16.1331V14.7461ZM15.4164 14.7461H8.79256V16.1331H15.4164V14.7461Z" fill="#9E9E9E"/>
<path d="M15.4164 12.262C15.7964 12.262 16.1044 11.9515 16.1044 11.5685C16.1044 11.1855 15.7964 10.875 15.4164 10.875V12.262ZM8.79256 10.875C8.41255 10.875 8.10449 11.1855 8.10449 11.5685C8.10449 11.9515 8.41255 12.262 8.79256 12.262V10.875ZM15.4164 10.875H8.79256V12.262H15.4164V10.875Z" fill="#9E9E9E"/>
<path d="M11.321 8.40066C11.7011 8.40066 12.0091 8.09017 12.0091 7.70716C12.0091 7.32416 11.7011 7.01367 11.321 7.01367V8.40066ZM8.79354 7.01367C8.41353 7.01367 8.10547 7.32416 8.10547 7.70716C8.10547 8.09017 8.41353 8.40066 8.79354 8.40066V7.01367ZM11.321 7.01367H8.79354V8.40066H11.321V7.01367Z" fill="#9E9E9E"/>
<path d="M15.5931 3.44349V2.75H15.5927L15.5931 3.44349ZM8.53902 3.44719V2.75369L8.53478 2.75371L8.53902 3.44719ZM8.57297 20.4664V21.1599H8.57323L8.57297 20.4664ZM15.6271 20.4636V21.1571H15.6313L15.6271 20.4636ZM15.5931 3.44349C15.5927 2.75 15.5927 2.75 15.5926 2.75C15.5926 2.75 15.5926 2.75 15.5925 2.75C15.5922 2.75 15.5919 2.75 15.5915 2.75C15.5906 2.75 15.5893 2.75 15.5876 2.75C15.5843 2.75 15.5792 2.75001 15.5726 2.75001C15.5593 2.75002 15.5394 2.75003 15.5137 2.75004C15.4621 2.75007 15.3864 2.75011 15.2901 2.75016C15.0975 2.75026 14.8223 2.7504 14.4921 2.75058C13.8316 2.75092 12.9509 2.75139 12.0698 2.75185C11.1888 2.75231 10.3073 2.75277 9.64551 2.75312C9.31459 2.75329 9.03857 2.75344 8.84493 2.75354C8.74811 2.75359 8.67189 2.75363 8.6197 2.75366C8.59361 2.75367 8.57353 2.75368 8.55987 2.75369C8.55305 2.75369 8.54784 2.75369 8.5443 2.7537C8.54055 2.7537 8.53897 2.7537 8.53902 2.7537V4.14068C8.54476 4.14068 10.3086 4.13976 12.0705 4.13883C12.9516 4.13837 13.8324 4.13791 14.4928 4.13756C14.823 4.13739 15.0982 4.13724 15.2908 4.13714C15.3871 4.13709 15.4627 4.13705 15.5144 4.13703C15.5402 4.13701 15.5599 4.137 15.5733 4.13699C15.5799 4.13699 15.5849 4.13699 15.5883 4.13699C15.5901 4.13699 15.5914 4.13699 15.5922 4.13699C15.5926 4.13698 15.5929 4.13698 15.5931 4.13698C15.5933 4.13698 15.5933 4.13698 15.5934 4.13698C15.5935 4.13698 15.5935 4.13698 15.5931 3.44349ZM8.53478 2.75371C7.11431 2.76253 5.90103 3.24204 5.04374 4.13979C4.18901 5.03487 3.75098 6.27965 3.75098 7.70339H5.12712C5.12712 6.56583 5.47302 5.69036 6.03526 5.1016C6.59493 4.51551 7.43162 4.14757 8.54326 4.14067L8.53478 2.75371ZM3.75098 7.70339V16.2065H5.12712V7.70339H3.75098ZM3.75098 16.2065C3.75098 17.6371 4.19221 18.8876 5.05397 19.7843C5.91835 20.6837 7.14138 21.1599 8.57297 21.1599V19.7729C7.45044 19.7729 6.60651 19.4063 6.04245 18.8193C5.47578 18.2297 5.12712 17.3502 5.12712 16.2065H3.75098ZM8.57297 20.4664C8.57323 21.1599 8.57326 21.1599 8.57331 21.1599C8.57337 21.1599 8.57345 21.1599 8.57355 21.1599C8.57377 21.1599 8.57409 21.1599 8.57452 21.1599C8.57537 21.1599 8.57664 21.1599 8.57834 21.1599C8.58173 21.1599 8.58677 21.1599 8.59343 21.1599C8.60676 21.1599 8.62653 21.1599 8.65232 21.1599C8.70391 21.1598 8.77956 21.1598 8.87585 21.1598C9.06843 21.1597 9.34357 21.1596 9.67376 21.1595C10.3341 21.1593 11.2148 21.1589 12.0958 21.1585C12.9768 21.1582 13.8582 21.1578 14.5201 21.1576C14.851 21.1574 15.1271 21.1573 15.3208 21.1572C15.4176 21.1572 15.4939 21.1572 15.5461 21.1571C15.5723 21.1571 15.5924 21.1571 15.606 21.1571C15.6128 21.1571 15.6181 21.1571 15.6216 21.1571C15.6235 21.1571 15.6248 21.1571 15.6258 21.1571C15.6268 21.1571 15.6271 21.1571 15.6271 21.1571V19.7702C15.6209 19.7702 13.8572 19.7708 12.0953 19.7715C11.2143 19.7719 10.3336 19.7723 9.67323 19.7725C9.34303 19.7726 9.0679 19.7727 8.87531 19.7728C8.77902 19.7728 8.70337 19.7728 8.65179 19.7729C8.62599 19.7729 8.60622 19.7729 8.5929 19.7729C8.58623 19.7729 8.58119 19.7729 8.5778 19.7729C8.57611 19.7729 8.57483 19.7729 8.57398 19.7729C8.57355 19.7729 8.57323 19.7729 8.57302 19.7729C8.57291 19.7729 8.57283 19.7729 8.57277 19.7729C8.57273 19.7729 8.5727 19.7729 8.57297 20.4664ZM15.6313 21.1571C17.0518 21.1483 18.2653 20.6685 19.1228 19.7706C19.9777 18.8754 20.416 17.6304 20.416 16.2065H19.0399C19.0399 17.3439 18.6938 18.2197 18.1313 18.8088C17.5714 19.3951 16.7344 19.7633 15.6228 19.7702L15.6313 21.1571ZM20.416 16.2065V7.70339H19.0399V16.2065H20.416ZM20.416 7.70339C20.416 6.27278 19.9745 5.02222 19.1124 4.12553C18.2479 3.22615 17.0247 2.75 15.5931 2.75V4.13698C16.7157 4.13698 17.5599 4.50366 18.1242 5.09067C18.6911 5.68036 19.0399 6.55974 19.0399 7.70339H20.416Z" fill="#9E9E9E"/>
</svg>
