<svg width="20" height="20" viewBox="0 0 20 20" fill="none" xmlns="http://www.w3.org/2000/svg">
<path d="M14.7467 8.17425C14.989 7.88462 14.9497 7.4542 14.6589 7.21288C14.3682 6.97156 13.9361 7.01073 13.6938 7.30035L14.7467 8.17425ZM6.25422 7.29747C6.01036 7.00918 5.57806 6.97239 5.28865 7.21529C4.99923 7.4582 4.9623 7.88883 5.20615 8.17713L6.25422 7.29747ZM14.2203 7.7373C13.6938 7.30035 13.6939 7.30027 13.694 7.3002C13.694 7.30019 13.694 7.30014 13.694 7.30012C13.6941 7.30008 13.6941 7.30009 13.694 7.30014C13.6939 7.30025 13.6937 7.30053 13.6933 7.30098C13.6926 7.30188 13.6912 7.30347 13.6893 7.30572C13.6855 7.31021 13.6794 7.31736 13.6712 7.32698C13.6547 7.34621 13.6296 7.37531 13.5965 7.41286C13.5304 7.48801 13.4328 7.59671 13.3099 7.72773C13.0632 7.99066 12.7182 8.33917 12.3225 8.68556C11.9243 9.03409 11.4896 9.36742 11.0636 9.61029C10.6266 9.8594 10.262 9.9767 9.9886 9.9767V11.3419C10.609 11.3419 11.2203 11.0939 11.7443 10.7952C12.2793 10.4902 12.7908 10.093 13.2272 9.71104C13.6659 9.32692 14.0437 8.94494 14.3111 8.65999C14.4452 8.51708 14.5525 8.3975 14.627 8.31285C14.6643 8.2705 14.6934 8.23682 14.7136 8.21326C14.7237 8.20147 14.7316 8.19221 14.7371 8.18565C14.7399 8.18237 14.7421 8.17977 14.7437 8.17786C14.7445 8.1769 14.7452 8.17612 14.7457 8.17552C14.7459 8.17522 14.7461 8.17496 14.7463 8.17475C14.7464 8.17465 14.7465 8.17452 14.7466 8.17447C14.7467 8.17435 14.7467 8.17425 14.2203 7.7373ZM9.9886 9.9767C9.71498 9.9767 9.34853 9.85916 8.90844 9.60955C8.47955 9.3663 8.04125 9.03253 7.63959 8.68375C7.24038 8.3371 6.8919 7.98835 6.64255 7.72527C6.51829 7.59416 6.41965 7.48538 6.35275 7.41016C6.31932 7.37258 6.29387 7.34345 6.27718 7.32418C6.26884 7.31455 6.26269 7.30739 6.25883 7.30288C6.2569 7.30062 6.25554 7.29903 6.25477 7.29812C6.25438 7.29767 6.25414 7.29738 6.25405 7.29728C6.254 7.29722 6.25399 7.29721 6.25402 7.29724C6.25403 7.29726 6.25408 7.29732 6.25409 7.29733C6.25415 7.29739 6.25422 7.29747 5.73018 7.7373C5.20615 8.17713 5.20624 8.17723 5.20633 8.17734C5.20638 8.1774 5.20648 8.17752 5.20657 8.17763C5.20675 8.17784 5.20697 8.17809 5.20722 8.17839C5.20773 8.17899 5.20839 8.17977 5.2092 8.18072C5.21081 8.18262 5.21303 8.18522 5.21583 8.18849C5.22143 8.19503 5.22938 8.20428 5.23957 8.21605C5.25996 8.23959 5.28936 8.27323 5.327 8.31555C5.40224 8.40013 5.51065 8.51963 5.64601 8.66246C5.91592 8.94725 6.297 9.329 6.73903 9.71284C7.17863 10.0946 7.69325 10.4913 8.23033 10.7959C8.75621 11.0942 9.36878 11.3419 9.9886 11.3419V9.9767Z" fill="#1AADB6"/>
<path d="M3.41346 9.9741C3.41346 7.42432 3.8672 5.94332 4.78828 5.06507C5.7182 4.17836 7.29311 3.74215 9.9795 3.74215V2.37695C7.22743 2.37695 5.17669 2.80487 3.8406 4.07887C2.49563 5.36131 2.04297 7.33759 2.04297 9.9741H3.41346ZM9.9795 3.74215C12.6659 3.74215 14.2408 4.17836 15.1707 5.06507C16.0918 5.94332 16.5455 7.42432 16.5455 9.9741H17.916C17.916 7.33759 17.4634 5.36131 16.1184 4.07887C14.7823 2.80487 12.7315 2.37695 9.9795 2.37695V3.74215ZM16.5455 9.9741C16.5455 12.5234 16.0918 14.0045 15.1707 14.8829C14.2407 15.7697 12.6658 16.2061 9.9795 16.2061V17.5713C12.7316 17.5713 14.7823 17.1431 16.1184 15.8691C17.4634 14.5865 17.916 12.6103 17.916 9.9741H16.5455ZM9.9795 16.2061C7.29316 16.2061 5.71825 15.7697 4.78829 14.8829C3.8672 14.0045 3.41346 12.5234 3.41346 9.9741H2.04297C2.04297 12.6103 2.49565 14.5865 3.84057 15.8691C5.17666 17.1431 7.22737 17.5713 9.9795 17.5713V16.2061Z" fill="#1AADB6"/>
</svg>
