<svg width="24" height="24" viewBox="0 0 24 24" fill="none" xmlns="http://www.w3.org/2000/svg">
<path d="M8.67008 20.1594C8.67008 20.5447 8.98129 20.8571 9.3652 20.8571C9.7491 20.8571 10.0603 20.5447 10.0603 20.1594H8.67008ZM9.3652 17.3067H10.0603H9.3652ZM10.6848 15.9866V15.2889H10.6802L10.6848 15.9866ZM14.6882 20.1683L15.3833 20.1685V20.1683H14.6882ZM15.8027 21.3023L15.7866 21.9998C15.792 21.9999 15.7973 22 15.8027 22V21.3023ZM17.586 21.3023V20.6047V21.3023ZM20.8048 9.98869H21.5L21.4998 9.97912L20.8048 9.98869ZM19.9132 8.21677L19.4797 8.76223C19.4836 8.76527 19.4874 8.76828 19.4913 8.77124L19.9132 8.21677ZM13.8144 3.33516L14.2478 2.7897L14.2462 2.78841L13.8144 3.33516ZM10.1587 3.33516L9.72694 2.7884L9.72369 2.79102L10.1587 3.33516ZM4.08675 8.22564L4.50656 8.7817C4.51169 8.77779 4.51677 8.77382 4.52179 8.76977L4.08675 8.22564ZM3.19512 9.99754L2.5 9.99065V9.99754H3.19512ZM10.0603 20.1594V17.3067H8.67008V20.1594H10.0603ZM10.0603 17.3067C10.0603 16.9711 10.3347 16.6866 10.6894 16.6843L10.6802 15.2889C9.57438 15.2963 8.67005 16.1911 8.67008 17.3067H10.0603ZM10.6848 16.6843H13.3597V15.2889H10.6848V16.6843ZM13.3597 16.6843C13.7162 16.6843 13.9931 16.9695 13.9931 17.3067H15.3833C15.3833 16.1857 14.4707 15.2889 13.3597 15.2889V16.6843ZM13.9931 17.3067V20.1683H15.3833V17.3067H13.9931ZM13.9931 20.1681C13.9928 21.1697 14.7955 21.9767 15.7866 21.9998L15.8188 20.6048C15.5703 20.5991 15.3832 20.3991 15.3833 20.1685L13.9931 20.1681ZM15.8027 22H17.586V20.6047H15.8027V22ZM17.586 22C19.741 22 21.4999 20.2623 21.4999 18.104H20.1097C20.1097 19.4785 18.9864 20.6047 17.586 20.6047V22ZM21.4999 18.104V9.98869H20.1097V18.104H21.4999ZM21.4998 9.97912C21.4874 9.06856 21.0571 8.21577 20.3351 7.6623L19.4913 8.77124C19.8768 9.06674 20.1032 9.51902 20.1098 9.99825L21.4998 9.97912ZM20.3466 7.67132L14.2478 2.7897L13.381 3.88062L19.4797 8.76223L20.3466 7.67132ZM14.2462 2.78841C12.9248 1.7372 11.0483 1.7372 9.72695 2.78841L10.5905 3.88191C11.406 3.23316 12.5672 3.23316 13.3826 3.88191L14.2462 2.78841ZM9.72369 2.79102L3.6517 7.6815L4.52179 8.76977L10.5938 3.8793L9.72369 2.79102ZM3.66694 7.66956C2.94085 8.22177 2.50902 9.07755 2.50003 9.99065L3.8902 10.0044C3.89491 9.52647 4.12089 9.07501 4.50656 8.7817L3.66694 7.66956ZM2.5 9.99754V18.104H3.89024V9.99754H2.5ZM2.5 18.104C2.5 20.2623 4.25892 22 6.4139 22V20.6047C5.01351 20.6047 3.89024 19.4785 3.89024 18.104H2.5ZM6.4139 22H8.19715V20.6047H6.4139V22ZM8.19715 22C9.20969 22 10.0425 21.1825 10.0425 20.1594H8.65224C8.65224 20.3987 8.4551 20.6047 8.19715 20.6047V22Z" fill="#9E9E9E"/>
</svg>
