<svg width="44" height="39" viewBox="0 0 44 39" fill="none" xmlns="http://www.w3.org/2000/svg">
<path d="M21.5 3.16217C11.8505 3.16217 4 10.4913 4 19.5C4 28.5087 11.8505 35.8378 21.5 35.8378C31.1495 35.8378 39 28.5087 39 19.5C39 10.4913 31.1495 3.16217 21.5 3.16217ZM21.5 32.5703C13.7808 32.5703 7.5 26.7066 7.5 19.5C7.5 12.2934 13.7808 6.42974 21.5 6.42974C29.2192 6.42974 35.5 12.2934 35.5 19.5C35.5 26.7066 29.2192 32.5703 21.5 32.5703Z" fill="#5B5A5A" fill-opacity="0.98"/>
<path d="M23.8332 11.375H20.1665V20.1727L26.2037 25.5239L28.796 23.2261L23.8332 18.8273V11.375Z" fill="#5B5A5A" fill-opacity="0.98"/>
</svg>
