<svg width="20" height="20" viewBox="0 0 20 20" fill="none" xmlns="http://www.w3.org/2000/svg">
<path fill-rule="evenodd" clip-rule="evenodd" d="M14.6023 6.16317V7.44095C16.0376 7.88897 17.0834 9.18828 17.0834 10.7402V14.8543C17.0834 16.7755 15.4906 18.3332 13.5269 18.3332H6.474C4.50947 18.3332 2.91667 16.7755 2.91667 14.8543V10.7402C2.91667 9.18828 3.96329 7.88897 5.39774 7.44095V6.16317C5.40621 3.67882 7.46389 1.6665 9.9873 1.6665C12.5446 1.6665 14.6023 3.67882 14.6023 6.16317ZM10.0042 3.11571C11.7232 3.11571 13.1204 4.4821 13.1204 6.16318V7.26126H6.87956V6.14662C6.88803 4.47382 8.28522 3.11571 10.0042 3.11571ZM10.7413 13.7123C10.7413 14.1181 10.411 14.4411 9.9961 14.4411C9.58964 14.4411 9.2594 14.1181 9.2594 13.7123V11.8739C9.2594 11.4764 9.58964 11.1534 9.9961 11.1534C10.411 11.1534 10.7413 11.4764 10.7413 11.8739V13.7123Z" fill="#D9D9D9"/>
</svg>
