<svg width="20" height="20" viewBox="0 0 20 20" fill="none" xmlns="http://www.w3.org/2000/svg">
<path d="M10 1.875C8.3623 1.875 6.79166 2.52558 5.63363 3.68362C4.47559 4.84165 3.82501 6.41229 3.82501 8.05V8.05V8.5C4.07501 11.8833 6.88335 14.6042 10 18.125C13.2542 14.45 16.175 11.6667 16.175 8.05C16.175 6.41229 15.5244 4.84165 14.3664 3.68362C13.2084 2.52558 11.6377 1.875 10 1.875ZM10 5.08333C10.5878 5.08333 11.1623 5.25768 11.651 5.5843C12.1396 5.91092 12.5204 6.37515 12.7451 6.91824C12.9698 7.46133 13.0284 8.05888 12.9135 8.63528C12.7985 9.21168 12.5151 9.74102 12.0992 10.1563C11.6833 10.5716 11.1536 10.8543 10.577 10.9684C10.0005 11.0826 9.40301 11.0232 8.86023 10.7977C8.31746 10.5722 7.85377 10.1907 7.52783 9.70164C7.20189 9.21254 7.02835 8.63775 7.02918 8.05C7.03028 7.26281 7.34377 6.50824 7.90079 5.952C8.45781 5.39576 9.21282 5.08333 10 5.08333Z" stroke="#ED6C02" stroke-width="0.416667" stroke-linecap="round" stroke-linejoin="round"/>
</svg>
