<svg width="22" height="20" viewBox="0 0 22 20" fill="none" xmlns="http://www.w3.org/2000/svg">
<path d="M9.35163 1.88206L8.97282 2.4695L9.35163 1.88206ZM2.44086 2.20742L1.93707 1.72146L2.44086 2.20742ZM19.5591 2.20743L20.0629 1.72147L19.5591 2.20743ZM12.6484 1.88207L12.2696 1.29464L12.6484 1.88207ZM17.5371 6.87214C17.6502 7.24067 18.0427 7.44821 18.4136 7.3357C18.7845 7.2232 18.9934 6.83324 18.8801 6.46472L17.5371 6.87214ZM17.0292 4.74193L16.5324 5.2349L17.0292 4.74193ZM15.8626 3.14708C15.5006 3.00901 15.0945 3.18868 14.9555 3.54841C14.8165 3.90813 14.9974 4.31169 15.3594 4.44976L15.8626 3.14708ZM9.73042 1.29463C8.8207 0.715429 7.57901 0.115932 6.2031 0.0148351C4.79104 -0.0889186 3.2886 0.338114 1.93707 1.72146L2.94464 2.6934C3.99688 1.61638 5.08805 1.33207 6.09954 1.40639C7.1472 1.48336 8.15902 1.95137 8.97282 2.4695L9.73042 1.29463ZM1.93707 1.72146C0.34153 3.35457 -0.159077 5.3686 0.0421933 7.41046C0.241445 9.43185 1.12578 11.4921 2.31013 13.3224C3.49722 15.1569 5.01386 16.8042 6.53464 17.9997C8.0244 19.1709 9.63463 20 11 20V18.6046C10.1254 18.6046 8.83259 18.027 7.40595 16.9054C6.01033 15.8083 4.59727 14.2769 3.4913 12.5677C2.38257 10.8543 1.61045 9.0059 1.43978 7.27444C1.27112 5.56347 1.68713 3.98052 2.94464 2.6934L1.93707 1.72146ZM11 20C12.3653 20 13.9756 19.1709 15.4653 17.9997C16.9861 16.8042 18.5027 15.1569 19.6898 13.3224C20.8742 11.4921 21.7586 9.43185 21.9578 7.41046C22.1591 5.3686 21.6585 3.35457 20.0629 1.72147L19.0554 2.6934C20.3128 3.98052 20.7289 5.56347 20.5602 7.27444C20.3895 9.0059 19.6174 10.8543 18.5087 12.5677C17.4027 14.2769 15.9897 15.8083 14.594 16.9054C13.1674 18.027 11.8745 18.6046 11 18.6046V20ZM20.0629 1.72147C18.7114 0.338129 17.2089 -0.0889 15.7969 0.0148509C14.421 0.115946 13.1793 0.715436 12.2696 1.29464L13.0272 2.46951C13.841 1.95138 14.8528 1.48338 15.9004 1.4064C16.912 1.33208 18.0031 1.6164 19.0554 2.6934L20.0629 1.72147ZM8.97282 2.4695C10.1776 3.23653 11.8224 3.23653 13.0272 2.46951L12.2696 1.29464C11.5266 1.76768 10.4734 1.76768 9.73042 1.29463L8.97282 2.4695ZM18.8801 6.46472C18.6333 5.66137 18.1914 4.91105 17.526 4.24896L16.5324 5.2349C17.037 5.73703 17.358 6.28923 17.5371 6.87214L18.8801 6.46472ZM17.526 4.24896C17.0013 3.72673 16.4412 3.36775 15.8626 3.14708L15.3594 4.44976C15.7401 4.59495 16.136 4.84049 16.5324 5.2349L17.526 4.24896Z" fill="white"/>
</svg>
