<svg width="28" height="28" viewBox="0 0 28 28" fill="none" xmlns="http://www.w3.org/2000/svg">
<path d="M23.3332 16.0412C23.3332 16.5806 23.0629 17.0264 22.7122 17.097L22.6147 17.1067L8.24479 17.1067C7.84802 17.1067 7.5263 16.6297 7.5263 16.0412C7.5263 15.5017 7.79661 15.0559 8.14732 14.9853L8.24479 14.9756L22.6147 14.9756C23.0116 14.9756 23.3332 15.4527 23.3332 16.0412Z" fill="#212121"/>
<path d="M14.5474 23.8458C14.8286 24.261 14.8296 24.9357 14.5496 25.3528C14.2951 25.7319 13.896 25.7676 13.6143 25.4589L13.5335 25.356L7.73765 16.7973C7.48126 16.4187 7.45793 15.8246 7.66769 15.4068L7.73761 15.2872L13.5335 6.72705C13.8147 6.31177 14.2696 6.31317 14.5496 6.73017C14.8041 7.10925 14.8265 7.70131 14.6172 8.11782L14.5475 8.23711L9.26316 16.0426L14.5474 23.8458Z" fill="#212121"/>
</svg>
