<svg width="430" height="813" viewBox="0 0 430 813" fill="none" xmlns="http://www.w3.org/2000/svg">
<g filter="url(#filter0_b_124_402)">
<path d="M0 48C0 21.4903 21.4903 0 48 0H215H382C408.51 0 430 21.4903 430 48V765C430 791.51 408.51 813 382 813H48C21.4903 813 0 791.51 0 765V48Z" fill="#F19041" fill-opacity="0.01"/>
<path d="M0.5 48C0.5 21.7665 21.7665 0.5 48 0.5H215H382C408.234 0.5 429.5 21.7665 429.5 48V765C429.5 791.234 408.234 812.5 382 812.5H48C21.7665 812.5 0.5 791.234 0.5 765V48Z" stroke="#ED6C02" stroke-opacity="0.29"/>
</g>
<defs>
<filter id="filter0_b_124_402" x="-30" y="-30" width="490" height="873" filterUnits="userSpaceOnUse" color-interpolation-filters="sRGB">
<feFlood flood-opacity="0" result="BackgroundImageFix"/>
<feGaussianBlur in="BackgroundImageFix" stdDeviation="15"/>
<feComposite in2="SourceAlpha" operator="in" result="effect1_backgroundBlur_124_402"/>
<feBlend mode="normal" in="SourceGraphic" in2="effect1_backgroundBlur_124_402" result="shape"/>
</filter>
</defs>
</svg>
