<svg width="20" height="20" viewBox="0 0 20 20" fill="none" xmlns="http://www.w3.org/2000/svg">
<path d="M3.65829 10.5963C3.65829 7.97556 4.10117 6.44744 4.99917 5.54373C5.89717 4.64 7.41551 4.19445 10.0191 4.19445V2.81836C7.33979 2.81836 5.33589 3.25886 4.03239 4.57064C2.72889 5.88244 2.29102 7.89929 2.29102 10.5963H3.65829ZM10.0191 4.19445C12.6232 4.19445 14.1417 4.64001 15.0398 5.54375C15.9379 6.44746 16.3808 7.97555 16.3808 10.5963H17.748C17.748 7.8993 17.3102 5.88242 16.0066 4.57062C14.7029 3.25885 12.6989 2.81836 10.0191 2.81836V4.19445ZM16.3808 10.5963C16.3808 13.2171 15.9379 14.7452 15.0398 15.649C14.1417 16.5527 12.6232 16.9983 10.0191 16.9983V18.3744C12.6989 18.3744 14.7029 17.9338 16.0066 16.622C17.3102 15.3103 17.748 13.2934 17.748 10.5963H16.3808ZM10.0191 16.9983C7.41551 16.9983 5.89717 16.5527 4.99917 15.649C4.10117 14.7452 3.65829 13.2171 3.65829 10.5963H2.29102C2.29102 13.2934 2.72889 15.3103 4.03239 16.622C5.33589 17.9338 7.33979 18.3744 10.0191 18.3744V16.9983Z" fill="#1AADB6"/>
<path d="M3.18364 6.88672C2.80607 6.88672 2.5 7.19477 2.5 7.57477C2.5 7.95476 2.80607 8.26281 3.18364 8.26281V6.88672ZM16.8625 8.26281C17.24 8.26281 17.5461 7.95476 17.5461 7.57477C17.5461 7.19477 17.24 6.88672 16.8625 6.88672V8.26281ZM3.18364 8.26281H16.8625V6.88672H3.18364V8.26281Z" fill="#1AADB6"/>
<path d="M12.9883 9.89648C12.6108 9.89648 12.3047 10.2045 12.3047 10.5845C12.3047 10.9645 12.6108 11.2726 12.9883 11.2726V9.89648ZM12.9952 11.2726C13.3727 11.2726 13.6788 10.9645 13.6788 10.5845C13.6788 10.2045 13.3727 9.89648 12.9952 9.89648V11.2726ZM12.9883 11.2726H12.9952V9.89648H12.9883V11.2726Z" fill="#1AADB6"/>
<path d="M9.64653 9.89648C9.26896 9.89648 8.96289 10.2045 8.96289 10.5845C8.96289 10.9645 9.26896 11.2726 9.64653 11.2726V9.89648ZM9.65336 11.2726C10.0309 11.2726 10.337 10.9645 10.337 10.5845C10.337 10.2045 10.0309 9.89648 9.65336 9.89648V11.2726ZM9.64653 11.2726H9.65336V9.89648H9.64653V11.2726Z" fill="#1AADB6"/>
<path d="M6.29887 9.89648C5.92131 9.89648 5.61523 10.2045 5.61523 10.5845C5.61523 10.9645 5.92131 11.2726 6.29887 11.2726V9.89648ZM6.30571 11.2726C6.68327 11.2726 6.98935 10.9645 6.98935 10.5845C6.98935 10.2045 6.68327 9.89648 6.30571 9.89648V11.2726ZM6.29887 11.2726H6.30571V9.89648H6.29887V11.2726Z" fill="#1AADB6"/>
<path d="M12.9883 12.8408C12.6108 12.8408 12.3047 13.1489 12.3047 13.5289C12.3047 13.9089 12.6108 14.2169 12.9883 14.2169V12.8408ZM12.9952 14.2169C13.3727 14.2169 13.6788 13.9089 13.6788 13.5289C13.6788 13.1489 13.3727 12.8408 12.9952 12.8408V14.2169ZM12.9883 14.2169H12.9952V12.8408H12.9883V14.2169Z" fill="#1AADB6"/>
<path d="M9.64653 12.8408C9.26896 12.8408 8.96289 13.1489 8.96289 13.5289C8.96289 13.9089 9.26896 14.2169 9.64653 14.2169V12.8408ZM9.65336 14.2169C10.0309 14.2169 10.337 13.9089 10.337 13.5289C10.337 13.1489 10.0309 12.8408 9.65336 12.8408V14.2169ZM9.64653 14.2169H9.65336V12.8408H9.64653V14.2169Z" fill="#1AADB6"/>
<path d="M6.29887 12.8408C5.92131 12.8408 5.61523 13.1489 5.61523 13.5289C5.61523 13.9089 5.92131 14.2169 6.29887 14.2169V12.8408ZM6.30571 14.2169C6.68327 14.2169 6.98935 13.9089 6.98935 13.5289C6.98935 13.1489 6.68327 12.8408 6.30571 12.8408V14.2169ZM6.29887 14.2169H6.30571V12.8408H6.29887V14.2169Z" fill="#1AADB6"/>
<path d="M13.3673 2.39605C13.3673 2.01606 13.0612 1.70801 12.6836 1.70801C12.3061 1.70801 12 2.01606 12 2.39605H13.3673ZM12 4.88984C12 5.26984 12.3061 5.57789 12.6836 5.57789C13.0612 5.57789 13.3673 5.26984 13.3673 4.88984H12ZM12 2.39605V4.88984H13.3673V2.39605H12Z" fill="#1AADB6"/>
<path d="M7.28525 2.39605C7.28525 2.01606 6.97917 1.70801 6.60161 1.70801C6.22404 1.70801 5.91797 2.01606 5.91797 2.39605H7.28525ZM5.91797 4.88984C5.91797 5.26984 6.22404 5.57789 6.60161 5.57789C6.97917 5.57789 7.28525 5.26984 7.28525 4.88984H5.91797ZM5.91797 2.39605V4.88984H7.28525V2.39605H5.91797Z" fill="#1AADB6"/>
</svg>
