<svg width="100" height="100" viewBox="0 0 100 100" fill="none" xmlns="http://www.w3.org/2000/svg">
<path fill-rule="evenodd" clip-rule="evenodd" d="M53.3312 0.832146C51.1645 0.139285 48.8355 0.139285 46.6688 0.832146L13.8562 11.3321C11.6478 12.0383 9.72082 13.4281 8.35365 15.3008C6.98648 17.1735 6.24981 19.4322 6.25 21.7509V43.7509C6.25 53.5384 8.25 63.6384 14.3938 73.0134C20.5375 82.3759 30.55 90.5946 45.8438 97.1071C47.1582 97.6658 48.5718 97.9538 50 97.9538C51.4282 97.9538 52.8418 97.6658 54.1562 97.1071C69.45 90.5946 79.4625 82.3759 85.6062 73.0134C91.75 63.6384 93.75 53.5384 93.75 43.7509V21.7509C93.7502 19.4322 93.0135 17.1735 91.6463 15.3008C90.2792 13.4281 88.3522 12.0383 86.1438 11.3321L53.3312 0.832146ZM49.5187 9.7634C49.8297 9.66346 50.1641 9.66346 50.475 9.7634L83.2875 20.2634C83.603 20.3641 83.8784 20.5624 84.0739 20.8298C84.2693 21.0971 84.3748 21.4197 84.375 21.7509V43.7509C84.375 52.2384 82.6562 60.4134 77.7687 67.8759C72.8687 75.3384 64.5125 82.5009 50.4812 88.4821C50.3288 88.5458 50.1652 88.5785 50 88.5785C49.8348 88.5785 49.6712 88.5458 49.5187 88.4821C35.4875 82.5071 27.1313 75.3322 22.2312 67.8697C17.3438 60.4134 15.625 52.2509 15.625 43.7509V21.7509C15.6265 21.4208 15.7326 21.0996 15.928 20.8335C16.1234 20.5674 16.398 20.37 16.7125 20.2696L49.525 9.76965L49.5187 9.7634ZM70.5 39.2509C71.328 38.3623 71.7788 37.187 71.7573 35.9726C71.7359 34.7582 71.244 33.5996 70.3851 32.7408C69.5263 31.8819 68.3676 31.39 67.1533 31.3686C65.9389 31.3471 64.7636 31.7979 63.875 32.6259L45.3125 51.1884L39.25 45.1259C38.8209 44.6654 38.3034 44.296 37.7284 44.0398C37.1534 43.7836 36.5327 43.6458 35.9033 43.6347C35.2739 43.6236 34.6487 43.7394 34.065 43.9751C33.4813 44.2109 32.9511 44.5618 32.506 45.0069C32.0609 45.452 31.71 45.9822 31.4742 46.5659C31.2385 47.1496 31.1227 47.7748 31.1338 48.4042C31.1449 49.0336 31.2827 49.6543 31.5389 50.2293C31.7951 50.8043 32.1645 51.3218 32.625 51.7509L42 61.1259C42.8789 62.0037 44.0703 62.4968 45.3125 62.4968C46.5547 62.4968 47.7461 62.0037 48.625 61.1259L70.5 39.2509Z" fill="#34A853"/>
</svg>
