<svg width="28" height="28" viewBox="0 0 28 28" fill="none" xmlns="http://www.w3.org/2000/svg">
<path d="M4.90002 8.01112C4.90002 7.2835 4.90307 6.73595 4.95838 6.29724C5.01301 5.86398 5.10973 5.62561 5.23278 5.47303C5.34798 5.33019 5.55112 5.18274 5.99095 5.0725C6.44189 4.95948 7.08489 4.9 8.01118 4.9V3.5C7.0472 3.5 6.26865 3.55959 5.65058 3.7145C5.02139 3.8722 4.50802 4.14155 4.143 4.59417C3.78582 5.03705 3.63861 5.5728 3.56936 6.12212C3.50079 6.66598 3.50001 7.30946 3.50001 8.01112H4.90002ZM8.01118 4.9C8.93747 4.9 9.58046 4.95948 10.0314 5.0725C10.4712 5.18274 10.6744 5.33019 10.7896 5.47303C10.9126 5.62561 11.0094 5.86398 11.064 6.29724C11.1193 6.73595 11.1223 7.2835 11.1223 8.01112H12.5224C12.5224 7.30946 12.5216 6.66598 12.453 6.12212C12.3837 5.5728 12.2365 5.03705 11.8794 4.59417C11.5143 4.14155 11.001 3.8722 10.3718 3.7145C9.7537 3.55959 8.97516 3.5 8.01118 3.5V4.9ZM11.1223 8.01112C11.1223 8.74123 11.122 9.28902 11.0694 9.72966C11.0175 10.1649 10.9233 10.4016 10.8032 10.5522C10.6915 10.6922 10.4918 10.8393 10.05 10.9496C9.59702 11.0627 8.94867 11.1223 8.01118 11.1223V12.5223C8.9853 12.5223 9.76915 12.4627 10.3892 12.3079C11.0204 12.1503 11.5346 11.8805 11.8977 11.4251C12.2526 10.9802 12.3943 10.4429 12.4596 9.89549C12.5242 9.35356 12.5224 8.71031 12.5224 8.01112H11.1223ZM8.01118 11.1223C7.07369 11.1223 6.42534 11.0627 5.97235 10.9496C5.53054 10.8393 5.33086 10.6922 5.21917 10.5522C5.09909 10.4016 5.00487 10.1649 4.95295 9.72966C4.90039 9.28902 4.90002 8.74123 4.90002 8.01112H3.50001C3.50001 8.71031 3.49814 9.35356 3.56279 9.89549C3.62808 10.4429 3.7698 10.9802 4.12461 11.4251C4.48781 11.8805 5.00197 12.1503 5.63318 12.3079C6.25321 12.4627 7.03706 12.5223 8.01118 12.5223V11.1223Z" fill="white"/>
<path d="M16.8776 8.01112C16.8776 7.2835 16.8806 6.73595 16.9359 6.29724C16.9905 5.86398 17.0873 5.62561 17.2103 5.47303C17.3255 5.33019 17.5287 5.18274 17.9685 5.0725C18.4194 4.95948 19.0624 4.9 19.9887 4.9V3.5C19.0247 3.5 18.2462 3.55959 17.6281 3.7145C16.9989 3.8722 16.4856 4.14155 16.1205 4.59417C15.7634 5.03705 15.6162 5.5728 15.5469 6.12212C15.4783 6.66598 15.4775 7.30946 15.4775 8.01112H16.8776ZM19.9887 4.9C20.915 4.9 21.558 4.95948 22.009 5.0725C22.4488 5.18274 22.6519 5.33019 22.7671 5.47303C22.8902 5.62561 22.9869 5.86398 23.0415 6.29724C23.0968 6.73595 23.0999 7.2835 23.0999 8.01112H24.4999C24.4999 7.30946 24.4991 6.66598 24.4305 6.12212C24.3613 5.5728 24.2141 5.03705 23.8569 4.59417C23.4919 4.14155 22.9785 3.8722 22.3493 3.7145C21.7312 3.55959 20.9527 3.5 19.9887 3.5V4.9ZM23.0999 8.01112C23.0999 8.74123 23.0995 9.28902 23.0469 9.72966C22.995 10.1649 22.9008 10.4016 22.7807 10.5522C22.669 10.6922 22.4694 10.8393 22.0275 10.9496C21.5746 11.0627 20.9262 11.1223 19.9887 11.1223V12.5223C20.9628 12.5223 21.7467 12.4627 22.3667 12.3079C22.9979 12.1503 23.5121 11.8805 23.8753 11.4251C24.2301 10.9802 24.3718 10.4429 24.4371 9.89549C24.5018 9.35356 24.4999 8.71031 24.4999 8.01112H23.0999ZM19.9887 11.1223C19.0512 11.1223 18.4029 11.0627 17.9499 10.9496C17.5081 10.8393 17.3084 10.6922 17.1967 10.5522C17.0766 10.4016 16.9824 10.1649 16.9305 9.72966C16.8779 9.28902 16.8776 8.74123 16.8776 8.01112H15.4775C15.4775 8.71031 15.4757 9.35356 15.5403 9.89549C15.6056 10.4429 15.7473 10.9802 16.1021 11.4251C16.4653 11.8805 16.9795 12.1503 17.6107 12.3079C18.2307 12.4627 19.0146 12.5223 19.9887 12.5223V11.1223Z" fill="white"/>
<path d="M4.90002 19.9896C4.90002 19.262 4.90307 18.7145 4.95838 18.2758C5.01301 17.8425 5.10973 17.6041 5.23278 17.4515C5.34798 17.3087 5.55112 17.1613 5.99095 17.051C6.44189 16.938 7.08489 16.8785 8.01118 16.8785V15.4785C7.0472 15.4785 6.26865 15.5381 5.65058 15.693C5.02139 15.8507 4.50802 16.1201 4.143 16.5727C3.78582 17.0156 3.63861 17.5513 3.56936 18.1006C3.50079 18.6445 3.50001 19.288 3.50001 19.9896H4.90002ZM8.01118 16.8785C8.93747 16.8785 9.58046 16.938 10.0314 17.051C10.4712 17.1613 10.6744 17.3087 10.7896 17.4515C10.9126 17.6041 11.0094 17.8425 11.064 18.2758C11.1193 18.7145 11.1223 19.262 11.1223 19.9896H12.5224C12.5224 19.288 12.5216 18.6445 12.453 18.1006C12.3837 17.5513 12.2365 17.0156 11.8794 16.5727C11.5143 16.1201 11.001 15.8507 10.3718 15.693C9.7537 15.5381 8.97516 15.4785 8.01118 15.4785V16.8785ZM11.1223 19.9896C11.1223 20.7197 11.122 21.2675 11.0694 21.7082C11.0175 22.1434 10.9233 22.3801 10.8032 22.5307C10.6915 22.6708 10.4918 22.8178 10.05 22.9281C9.59702 23.0412 8.94867 23.1008 8.01118 23.1008V24.5008C8.9853 24.5008 9.76915 24.4412 10.3892 24.2864C11.0204 24.1288 11.5346 23.859 11.8977 23.4036C12.2526 22.9587 12.3943 22.4214 12.4596 21.874C12.5242 21.3321 12.5224 20.6888 12.5224 19.9896H11.1223ZM8.01118 23.1008C7.07369 23.1008 6.42534 23.0412 5.97235 22.9281C5.53054 22.8178 5.33086 22.6708 5.21917 22.5307C5.09909 22.3801 5.00487 22.1434 4.95295 21.7082C4.90039 21.2675 4.90002 20.7197 4.90002 19.9896H3.50001C3.50001 20.6888 3.49814 21.3321 3.56279 21.874C3.62808 22.4214 3.7698 22.9587 4.12461 23.4036C4.48781 23.859 5.00197 24.1288 5.63318 24.2864C6.25321 24.4412 7.03706 24.5008 8.01118 24.5008V23.1008Z" fill="white"/>
<path d="M16.8776 19.9896C16.8776 19.262 16.8806 18.7145 16.9359 18.2758C16.9905 17.8425 17.0873 17.6041 17.2103 17.4515C17.3255 17.3087 17.5287 17.1613 17.9685 17.051C18.4194 16.938 19.0624 16.8785 19.9887 16.8785V15.4785C19.0247 15.4785 18.2462 15.5381 17.6281 15.693C16.9989 15.8507 16.4856 16.1201 16.1205 16.5727C15.7634 17.0156 15.6162 17.5513 15.5469 18.1006C15.4783 18.6445 15.4775 19.288 15.4775 19.9896H16.8776ZM19.9887 16.8785C20.915 16.8785 21.558 16.938 22.009 17.051C22.4488 17.1613 22.6519 17.3087 22.7671 17.4515C22.8902 17.6041 22.9869 17.8425 23.0415 18.2758C23.0968 18.7145 23.0999 19.262 23.0999 19.9896H24.4999C24.4999 19.288 24.4991 18.6445 24.4305 18.1006C24.3613 17.5513 24.2141 17.0156 23.8569 16.5727C23.4919 16.1201 22.9785 15.8507 22.3493 15.693C21.7312 15.5381 20.9527 15.4785 19.9887 15.4785V16.8785ZM23.0999 19.9896C23.0999 20.7197 23.0995 21.2675 23.0469 21.7082C22.995 22.1434 22.9008 22.3801 22.7807 22.5307C22.669 22.6708 22.4694 22.8178 22.0275 22.9281C21.5746 23.0412 20.9262 23.1008 19.9887 23.1008V24.5008C20.9628 24.5008 21.7467 24.4412 22.3667 24.2864C22.9979 24.1288 23.5121 23.859 23.8753 23.4036C24.2301 22.9587 24.3718 22.4214 24.4371 21.874C24.5018 21.3321 24.4999 20.6888 24.4999 19.9896H23.0999ZM19.9887 23.1008C19.0512 23.1008 18.4029 23.0412 17.9499 22.9281C17.5081 22.8178 17.3084 22.6708 17.1967 22.5307C17.0766 22.3801 16.9824 22.1434 16.9305 21.7082C16.8779 21.2675 16.8776 20.7197 16.8776 19.9896H15.4775C15.4775 20.6888 15.4757 21.3321 15.5403 21.874C15.6056 22.4214 15.7473 22.9587 16.1021 23.4036C16.4653 23.859 16.9795 24.1288 17.6107 24.2864C18.2307 24.4412 19.0146 24.5008 19.9887 24.5008V23.1008Z" fill="white"/>
</svg>
