<svg width="37" height="33" viewBox="0 0 37 33" fill="none" xmlns="http://www.w3.org/2000/svg">
<path d="M31.2188 10.3125H24.4691L23.8513 8.77207L23.0238 6.70312H13.9726L13.1451 8.77207L12.5272 10.3125H5.78125C5.62227 10.3125 5.49219 10.4285 5.49219 10.5703V25.2656C5.49219 25.4074 5.62227 25.5234 5.78125 25.5234H31.2188C31.3777 25.5234 31.5078 25.4074 31.5078 25.2656V10.5703C31.5078 10.4285 31.3777 10.3125 31.2188 10.3125ZM18.5 22.6875C15.3059 22.6875 12.7188 20.3801 12.7188 17.5312C12.7188 14.6824 15.3059 12.375 18.5 12.375C21.6941 12.375 24.2812 14.6824 24.2812 17.5312C24.2812 20.3801 21.6941 22.6875 18.5 22.6875Z" fill="#ED6C02" fill-opacity="0.15"/>
<path d="M18.5 12.375C15.3059 12.375 12.7188 14.6824 12.7188 17.5312C12.7188 20.3801 15.3059 22.6875 18.5 22.6875C21.6941 22.6875 24.2812 20.3801 24.2812 17.5312C24.2812 14.6824 21.6941 12.375 18.5 12.375ZM18.5 20.625C16.585 20.625 15.0312 19.2393 15.0312 17.5312C15.0312 15.8232 16.585 14.4375 18.5 14.4375C20.415 14.4375 21.9688 15.8232 21.9688 17.5312C21.9688 19.2393 20.415 20.625 18.5 20.625Z" fill="#ED6C02"/>
<path d="M31.2188 7.99219H26.3047L25.134 5.06602C25.0531 4.86579 24.9049 4.69271 24.7096 4.57043C24.5143 4.44815 24.2814 4.38262 24.0428 4.38281H12.9572C12.4694 4.38281 12.0322 4.65674 11.8696 5.06602L10.6953 7.99219H5.78125C4.18418 7.99219 2.89062 9.1459 2.89062 10.5703V25.2656C2.89062 26.69 4.18418 27.8438 5.78125 27.8438H31.2188C32.8158 27.8438 34.1094 26.69 34.1094 25.2656V10.5703C34.1094 9.1459 32.8158 7.99219 31.2188 7.99219ZM31.5078 25.2656C31.5078 25.4074 31.3777 25.5234 31.2188 25.5234H5.78125C5.62227 25.5234 5.49219 25.4074 5.49219 25.2656V10.5703C5.49219 10.4285 5.62227 10.3125 5.78125 10.3125H12.5272L13.1451 8.77207L13.9726 6.70313H23.0238L23.8513 8.77207L24.4691 10.3125H31.2188C31.3777 10.3125 31.5078 10.4285 31.5078 10.5703V25.2656Z" fill="#ED6C02"/>
</svg>
