<svg width="34" height="46" viewBox="0 0 34 46" fill="none" xmlns="http://www.w3.org/2000/svg">
<path d="M11.9531 3.23437H11.6875C11.8336 3.23437 11.9531 3.07266 11.9531 2.875V3.23437H22.0469V2.875C22.0469 3.07266 22.1664 3.23437 22.3125 3.23437H22.0469V6.46875H24.4375V2.875C24.4375 1.28926 23.4846 0 22.3125 0H11.6875C10.5154 0 9.5625 1.28926 9.5625 2.875V6.46875H11.9531V3.23437ZM28.6875 6.46875H5.3125C4.7248 6.46875 4.25 7.11113 4.25 7.90625V9.34375C4.25 9.5414 4.36953 9.70312 4.51562 9.70312H6.52109L7.34121 33.1973C7.39434 34.7291 8.33066 35.9375 9.46289 35.9375H24.5371C25.6727 35.9375 26.6057 34.7336 26.6588 33.1973L27.4789 9.70312H29.4844C29.6305 9.70312 29.75 9.5414 29.75 9.34375V7.90625C29.75 7.11113 29.2752 6.46875 28.6875 6.46875ZM24.2814 32.7031H9.71856L8.91504 9.70312H25.085L24.2814 32.7031Z" fill="#ED6C02"/>
</svg>
