<svg width="292" height="240" viewBox="0 0 292 240" fill="none" xmlns="http://www.w3.org/2000/svg">
<ellipse cx="67.5" cy="173" rx="67.5" ry="67" fill="#ED6C02" fill-opacity="0.26"/>
<circle cx="186" cy="106" r="106" fill="#ED6C02"/>
<path d="M244.42 64.9672H235.116L235.583 64.0156L243.345 64.0016C243.608 64.0016 243.833 63.8141 243.88 63.5547L244.955 57.5375C244.983 57.3797 244.941 57.2172 244.837 57.0938C244.787 57.033 244.723 56.9841 244.651 56.9503C244.579 56.9166 244.501 56.8989 244.422 56.8984L234.547 56.8656L234.462 56.4688C234.409 56.2156 234.181 56.0312 233.922 56.0312H231.508C231.362 56.0312 231.221 56.0894 231.118 56.1928C231.014 56.2962 230.956 56.4365 230.956 56.5828C230.956 56.7291 231.014 56.8694 231.118 56.9728C231.221 57.0763 231.362 57.1344 231.508 57.1344H233.475L233.844 58.8875L234.752 63.2828L233.583 65.1906C233.522 65.2725 233.486 65.3698 233.477 65.4714C233.469 65.573 233.489 65.675 233.536 65.7656C233.63 65.9516 233.819 66.0688 234.028 66.0688H235.009C234.8 66.3466 234.687 66.685 234.687 67.0328C234.687 67.9172 235.406 68.6359 236.291 68.6359C237.175 68.6359 237.894 67.9172 237.894 67.0328C237.894 66.6844 237.778 66.3453 237.572 66.0688H240.089C239.88 66.3466 239.767 66.685 239.767 67.0328C239.767 67.9172 240.486 68.6359 241.37 68.6359C242.255 68.6359 242.973 67.9172 242.973 67.0328C242.973 66.6844 242.858 66.3453 242.652 66.0688H244.422C244.725 66.0688 244.973 65.8219 244.973 65.5172C244.973 65.3711 244.914 65.2312 244.81 65.1282C244.707 65.0251 244.566 64.9673 244.42 64.9672ZM234.777 57.9531L243.773 57.9828L242.892 62.9172L235.825 62.9297L234.777 57.9531ZM236.291 67.5266C236.019 67.5266 235.797 67.3047 235.797 67.0328C235.797 66.7609 236.019 66.5391 236.291 66.5391C236.562 66.5391 236.784 66.7609 236.784 67.0328C236.784 67.1638 236.732 67.2894 236.64 67.3819C236.547 67.4745 236.422 67.5266 236.291 67.5266ZM241.37 67.5266C241.098 67.5266 240.877 67.3047 240.877 67.0328C240.877 66.7609 241.098 66.5391 241.37 66.5391C241.642 66.5391 241.864 66.7609 241.864 67.0328C241.864 67.1638 241.812 67.2894 241.719 67.3819C241.627 67.4745 241.501 67.5266 241.37 67.5266Z" fill="#ED6C02"/>
</svg>
