<svg width="31" height="31" viewBox="0 0 31 31" fill="none" xmlns="http://www.w3.org/2000/svg">
<path d="M29.123 23.545V11.4986C29.123 9.96941 27.8971 8.71875 26.3984 8.71875H13.6836C12.1849 8.71875 10.959 9.96989 10.959 11.4986H7.50781C6.34144 11.4986 5.41919 11.4986 4.75656 12.2842C4.13317 13.0234 4.01111 14.2547 4.01111 16.1321C4.01111 17.1517 3.57323 17.622 2.9668 18.2735C2.27898 19.0117 1.42261 19.932 1.42261 21.6923V23.6753C1.28447 23.7572 1.17001 23.8737 1.09044 24.0132C1.01088 24.1527 0.968943 24.3105 0.96875 24.4711V25.3977C0.96875 25.9073 1.37805 26.3243 1.87695 26.3243H2.82148C2.79855 26.4778 2.78641 26.6327 2.78516 26.7879C2.78516 28.5791 4.20873 30.0312 5.96411 30.0312C7.71852 30.0312 9.14306 28.5791 9.14306 26.7884C9.14306 26.6305 9.12853 26.4764 9.10722 26.3248H12.7759V26.7884C12.7759 27.2974 13.1852 27.7145 13.6841 27.7145H17.3169C17.8163 27.7145 18.2251 27.2974 18.2251 26.7884V26.3248H21.4404C21.4174 26.4783 21.4053 26.6332 21.404 26.7884C21.404 28.5791 22.8276 30.0312 24.583 30.0312C26.3374 30.0312 27.762 28.5791 27.762 26.7884C27.762 26.6305 27.7474 26.4764 27.7261 26.3248H29.1245C29.6239 26.3248 30.0327 25.9078 30.0327 25.3982V24.4716C30.0312 23.9625 29.6224 23.545 29.123 23.545ZM26.3984 22.1548H13.6836C12.9323 22.1548 12.321 21.531 12.321 20.7647V18.9115H13.2292V20.7647C13.2283 20.8863 13.2756 21.0033 13.3608 21.0902C13.4459 21.1771 13.562 21.2267 13.6836 21.2282H26.3984C26.5201 21.2267 26.6361 21.1771 26.7213 21.0902C26.8064 21.0033 26.8537 20.8863 26.8528 20.7647V18.9115H27.761V20.7647C27.761 21.531 27.1497 22.1548 26.3984 22.1548ZM16.0687 16.3399V16.7448H15.0621V17.547H16.1878V17.9567H14.5744V15.2254H16.1282V15.6351H15.0621V16.3404H16.0687V16.3399ZM14.1379 12.4252C14.0162 12.4239 13.9 12.3744 13.8148 12.2874C13.7296 12.2005 13.6824 12.0833 13.6836 11.9616C13.6836 11.7054 13.887 11.4981 14.1379 11.4981C14.3893 11.4981 14.5923 11.7054 14.5923 11.9616C14.5933 12.0833 14.5461 12.2004 14.4609 12.2873C14.3757 12.3742 14.2596 12.4238 14.1379 12.4252ZM14.5918 20.3016C14.5924 20.3618 14.5811 20.4216 14.5586 20.4775C14.536 20.5334 14.5027 20.5842 14.4605 20.6272C14.4183 20.6702 14.3681 20.7045 14.3127 20.7281C14.2572 20.7517 14.1977 20.7641 14.1375 20.7647C13.8865 20.7647 13.6831 20.5574 13.6831 20.3016C13.6831 20.0459 13.8865 19.8385 14.1375 19.8385C14.3888 19.8385 14.5918 20.0459 14.5918 20.3016ZM18.2009 17.5387V17.9567H16.6155V15.2254H17.1028V17.5387H18.2009ZM18.568 17.9567V15.2254H19.0568V17.9567H18.568ZM19.361 15.2254H19.8928L20.257 16.4658C20.3602 16.8093 20.4479 17.1299 20.5186 17.4622H20.5268C20.5976 17.1382 20.6935 16.8064 20.801 16.4736L21.1895 15.2254H21.7082L20.785 17.9567H20.2251L19.361 15.2254ZM23.4912 16.3399V16.7448H22.4837V17.547H23.6094V17.9567H21.996V15.2254H23.5508V15.6351H22.4837V16.3404H23.4912V16.3399ZM25.4902 11.9621C25.4902 11.7059 25.6937 11.4986 25.9446 11.4986C26.196 11.4986 26.3989 11.7059 26.3989 11.9621C26.4001 12.0838 26.3529 12.201 26.2677 12.2879C26.1825 12.3749 26.0663 12.4244 25.9446 12.4257C25.823 12.4241 25.7069 12.3745 25.6218 12.2877C25.5366 12.2008 25.4893 12.0838 25.4902 11.9621ZM26.3984 20.3016C26.399 20.3618 26.3877 20.4216 26.3652 20.4775C26.3427 20.5334 26.3094 20.5842 26.2672 20.6272C26.225 20.6702 26.1747 20.7045 26.1193 20.7281C26.0639 20.7517 26.0043 20.7641 25.9441 20.7647C25.6932 20.7647 25.4897 20.5574 25.4897 20.3016C25.4897 20.0459 25.6932 19.8385 25.9441 19.8385C26.1955 19.8385 26.3984 20.0459 26.3984 20.3016ZM25.5997 15.4244C25.746 15.5499 25.8298 15.7398 25.8298 15.9713C25.8298 16.3239 25.5968 16.5637 25.3464 16.6557V16.6683C25.5372 16.741 25.6515 16.9318 25.7189 17.1943C25.8022 17.5349 25.8729 17.8507 25.9296 17.9567H25.4258C25.3866 17.8754 25.3226 17.653 25.2476 17.3125C25.1725 16.956 25.0456 16.8422 24.7675 16.834H24.522V17.9567H24.0381V15.2622C24.282 15.223 24.5287 15.2039 24.7758 15.205C25.1594 15.205 25.421 15.2704 25.5997 15.4244ZM27.3265 16.8059V17.9567H26.8392V16.8175L25.9954 15.2249H26.5496L26.8707 15.9258C26.9618 16.1282 27.0305 16.2827 27.1017 16.4692H27.1095C27.1763 16.2953 27.2514 16.1248 27.343 15.9258L27.6636 15.2249H28.2153L27.3265 16.8059ZM12.3215 11.4986C12.3215 10.7318 12.9328 10.1084 13.6841 10.1084H26.3984C27.1497 10.1084 27.761 10.7318 27.761 11.4986V14.2784H26.8528V11.4986C26.8538 11.3769 26.8066 11.2598 26.7214 11.1729C26.6362 11.086 26.5201 11.0364 26.3984 11.035H13.6836C13.562 11.0366 13.4459 11.0862 13.3608 11.1731C13.2756 11.2599 13.2283 11.377 13.2292 11.4986V14.2784H12.321V11.4986H12.3215ZM11.8672 15.2622C12.1242 15.222 12.384 15.2029 12.6441 15.205C13.143 15.205 13.4884 15.3106 13.7345 15.5208C13.9921 15.7359 14.1505 16.0599 14.1505 16.5264C14.1505 17.0122 13.9878 17.377 13.7345 17.6124C13.469 17.8594 13.0447 17.9853 12.5255 17.9853C12.2397 17.9853 12.0261 17.9689 11.8672 17.9485V15.2622ZM2.3313 21.6918C2.3313 18.9115 4.9198 18.9115 4.9198 16.1316C4.9198 12.4252 5.45891 12.4252 7.5083 12.4252H10.9595V23.545H2.3313V21.6918ZM3.09564 25.3982H1.87695V24.4716H3.7418C3.47539 24.737 3.25742 25.0514 3.09564 25.3982ZM6.40586 28.5796C6.37534 28.3539 6.1937 28.178 5.96411 28.178C5.73548 28.178 5.55288 28.3539 5.52236 28.5796C5.19386 28.4964 4.89562 28.3219 4.66211 28.0763C4.75016 28.0084 4.81098 27.9113 4.83355 27.8024C4.85612 27.6936 4.83895 27.5802 4.78514 27.483C4.73123 27.3882 4.64448 27.3166 4.5413 27.2815C4.43812 27.2464 4.32567 27.2504 4.2252 27.2926C4.18016 27.1313 4.14819 26.9637 4.14819 26.7879C4.14819 26.612 4.17967 26.4445 4.22472 26.2832C4.32527 26.3257 4.43796 26.3298 4.54131 26.2946C4.64466 26.2594 4.73145 26.1874 4.78514 26.0923C4.83881 25.9951 4.85592 25.8819 4.83335 25.7731C4.81078 25.6644 4.75004 25.5673 4.66211 25.4994C4.89575 25.2539 5.19392 25.0793 5.52236 24.9957C5.55288 25.2219 5.73452 25.3972 5.96411 25.3972C6.19322 25.3972 6.37534 25.2219 6.40586 24.9957C6.73427 25.0791 7.03246 25.2536 7.26611 25.499C7.17814 25.5669 7.11741 25.6641 7.09493 25.7729C7.07245 25.8818 7.0897 25.9951 7.14356 26.0923C7.19732 26.1872 7.28406 26.259 7.3873 26.2941C7.49053 26.3292 7.60306 26.3251 7.7035 26.2827C7.74855 26.4445 7.78003 26.6116 7.78003 26.7879C7.78003 26.9637 7.74855 27.1303 7.7035 27.2921C7.60302 27.2496 7.49041 27.2456 7.38714 27.2808C7.28387 27.316 7.19717 27.3879 7.14356 27.483C7.0897 27.5802 7.07245 27.6935 7.09493 27.8023C7.11741 27.9112 7.17814 28.0084 7.26611 28.0763C7.03218 28.3214 6.7341 28.4957 6.40586 28.5796ZM17.2031 26.3248H13.7974C13.485 26.3248 13.2297 26.1165 13.2297 25.8613C13.2297 25.607 13.485 25.3982 13.7974 25.3982H17.2031C17.5155 25.3982 17.7708 25.607 17.7708 25.8613C17.7708 26.1165 17.515 26.3248 17.2031 26.3248ZM21.7136 25.3982H18.0977C18.0199 25.2589 17.9067 25.1427 17.7694 25.0614C17.6322 24.9801 17.4759 24.9365 17.3164 24.9351H13.6836C13.3503 24.9351 13.0607 25.1231 12.9028 25.3982H8.83258C8.67269 25.0539 8.45385 24.7401 8.18594 24.4711H22.3597C22.0938 24.737 21.8753 25.0514 21.7136 25.3982ZM25.0238 28.5796C24.9933 28.3539 24.8116 28.178 24.582 28.178C24.3534 28.178 24.1713 28.3539 24.1403 28.5796C23.8121 28.496 23.5141 28.3216 23.2805 28.0763C23.3685 28.0084 23.4292 27.9112 23.4517 27.8023C23.4742 27.6935 23.4569 27.5802 23.4031 27.483C23.3492 27.3882 23.2624 27.3166 23.1592 27.2815C23.056 27.2464 22.9436 27.2504 22.8431 27.2926C22.7976 27.1318 22.7656 26.9642 22.7656 26.7884C22.7656 26.6125 22.7976 26.4449 22.8426 26.2836C22.9431 26.3262 23.0557 26.3302 23.159 26.295C23.2623 26.2598 23.349 26.1878 23.4026 26.0928C23.4565 25.9957 23.4738 25.8824 23.4513 25.7736C23.4288 25.6648 23.368 25.5677 23.28 25.4999C23.5137 25.2547 23.8116 25.0801 24.1398 24.9962C24.1708 25.2224 24.3524 25.3977 24.5815 25.3977C24.8107 25.3977 24.9928 25.2224 25.0233 24.9962C25.3517 25.0796 25.6499 25.254 25.8835 25.4994C25.7957 25.5675 25.7351 25.6647 25.7127 25.7735C25.6902 25.8823 25.7073 25.9955 25.761 26.0928C25.8148 26.1876 25.9016 26.2593 26.0048 26.2944C26.108 26.3295 26.2205 26.3255 26.3209 26.2832C26.366 26.4449 26.3975 26.612 26.3975 26.7884C26.3975 26.9642 26.3665 27.1308 26.3209 27.2926C26.2205 27.2501 26.1078 27.246 26.0046 27.2812C25.9013 27.3164 25.8146 27.3884 25.761 27.4834C25.7073 27.5807 25.6902 27.694 25.7127 27.8028C25.7351 27.9116 25.7957 28.0087 25.8835 28.0768C25.6499 28.3218 25.3519 28.496 25.0238 28.5796ZM29.123 25.3982H27.4505C27.2909 25.0539 27.0722 24.7403 26.8043 24.4716H29.123V25.3982Z" fill="#ED6C02"/>
<path d="M2.78516 20.7647H3.69336V22.6179H2.78516V20.7647ZM5.50977 14.742V16.9551C5.50977 16.9551 5.50977 17.9853 6.41797 17.9853H10.0508V13.3523H6.41797C6.41797 13.3518 5.50977 13.455 5.50977 14.742Z" fill="#ED6C02"/>
<path d="M5.96411 27.7145C6.4657 27.7145 6.87231 27.2996 6.87231 26.7879C6.87231 26.2761 6.4657 25.8613 5.96411 25.8613C5.46252 25.8613 5.05591 26.2761 5.05591 26.7879C5.05591 27.2996 5.46252 27.7145 5.96411 27.7145Z" fill="#ED6C02"/>
<path d="M24.582 27.7145C25.0836 27.7145 25.4902 27.2996 25.4902 26.7879C25.4902 26.2761 25.0836 25.8613 24.582 25.8613C24.0804 25.8613 23.6738 26.2761 23.6738 26.7879C23.6738 27.2996 24.0804 27.7145 24.582 27.7145Z" fill="#ED6C02"/>
<path d="M13.6357 16.5424C13.6395 15.9388 13.299 15.594 12.6877 15.594C12.5332 15.594 12.4223 15.6061 12.355 15.623V17.5755C12.4223 17.5877 12.5255 17.5877 12.6248 17.5877C13.2588 17.5915 13.6357 17.236 13.6357 16.5424ZM24.521 16.4697H24.8102C25.1405 16.4697 25.3459 16.291 25.3459 16.0193C25.3459 15.7199 25.1401 15.5823 24.8223 15.5823C24.6683 15.5823 24.569 15.594 24.521 15.6061V16.4697Z" fill="#ED6C02"/>
</svg>
