<svg width="37" height="24" viewBox="0 0 37 24" fill="none" xmlns="http://www.w3.org/2000/svg">
<path d="M33.6494 10.2663C33.637 9.12809 33.6328 7.98144 33.6287 6.839H30.2905C30.2781 7.97723 30.2698 9.11966 30.2615 10.2663C29.1378 10.2705 28.0223 10.279 26.9068 10.2916V13.7021C28.0223 13.7147 29.146 13.7231 30.2615 13.7358C30.2739 14.874 30.2739 16.0164 30.2822 17.1547H33.6246C33.6287 16.0164 33.637 14.874 33.6452 13.7274C34.769 13.7147 35.8845 13.7105 37 13.6978V10.2874C35.8886 10.279 34.7649 10.279 33.6494 10.2663ZM11.7524 10.2832C11.7483 11.6448 11.7524 13.0107 11.7566 14.3723C13.9958 14.4482 16.2392 14.4145 18.4785 14.4482C17.4911 19.5196 10.7361 21.1637 7.16236 17.8502C3.48533 14.9457 3.65885 8.57585 7.48048 5.87784C10.1536 3.70257 13.9504 4.23796 16.6235 6.12235C17.6729 5.13167 18.6562 4.06933 19.6023 2.97327C17.3795 1.16476 14.6528 -0.125223 11.7524 0.0096771C5.69568 -0.196889 0.130556 5.21599 0.0314004 11.4003C-0.35696 16.4549 2.89866 21.4082 7.49288 23.1957C12.0706 24.9957 17.9414 23.769 20.8665 19.5702C22.7959 16.9186 23.2132 13.5039 22.986 10.2958C19.2387 10.2663 15.4956 10.2705 11.7524 10.2832Z" fill="white"/>
</svg>
