<svg width="41" height="42" viewBox="0 0 41 42" fill="none" xmlns="http://www.w3.org/2000/svg">
<path d="M40.9679 22.1398C40.3407 33.698 30.6684 42.5401 19.3643 41.8894C8.06012 41.2387 -0.595203 31.3414 0.0320495 19.7833C0.659302 8.22518 10.3316 -0.617002 21.6357 0.0337394C32.9399 0.68448 41.5952 10.5817 40.9679 22.1398Z" fill="#ED6C02" fill-opacity="0.26"/>
<path d="M23.8271 23.2985V20.8487H22.3615V23.6907C22.3615 23.9419 22.4387 24.1829 22.5762 24.3605L24.5599 26.9249V28.4274H8.43796V26.9249L10.4217 24.3605C10.5591 24.1829 10.6364 23.9419 10.6364 23.6907V19.9013C10.6344 18.5701 10.9041 17.2618 11.4184 16.1085C11.9327 14.9552 12.6733 13.9977 13.5654 13.3329C14.4575 12.668 15.4696 12.3193 16.4993 12.3218C17.5291 12.3244 18.5401 12.6783 19.4302 13.3476V11.2303C18.7326 10.8311 17.9907 10.5766 17.2317 10.4763V8.53327H15.7661V10.4753C13.9594 10.713 12.2851 11.8083 11.0668 13.5494C9.84861 15.2905 9.17305 17.5537 9.17077 19.9013V23.2985L7.18704 25.863C7.0496 26.0406 6.97237 26.2815 6.97233 26.5327V29.3747C6.97233 29.626 7.04954 29.867 7.18697 30.0446C7.32439 30.2223 7.51079 30.3221 7.70514 30.3221H12.8349V31.2694C12.8349 32.5257 13.2209 33.7305 13.908 34.6188C14.5952 35.5071 15.5272 36.0061 16.4989 36.0061C17.4707 36.0061 18.4027 35.5071 19.0898 34.6188C19.777 33.7305 20.163 32.5257 20.163 31.2694V30.3221H25.2927C25.4871 30.3221 25.6735 30.2223 25.8109 30.0446C25.9483 29.867 26.0255 29.626 26.0255 29.3747V26.5327C26.0255 26.2815 25.9483 26.0406 25.8108 25.863L23.8271 23.2985ZM18.6974 31.2694C18.6974 32.0232 18.4658 32.7461 18.0535 33.279C17.6412 33.812 17.082 34.1114 16.4989 34.1114C15.9159 34.1114 15.3567 33.812 14.9444 33.279C14.5321 32.7461 14.3005 32.0232 14.3005 31.2694V30.3221H18.6974V31.2694Z" fill="#ED6C02"/>
<path d="M30.2331 18.5085C32.4254 18.5085 34.2025 16.8246 34.2025 14.7474C34.2025 12.6701 32.4254 10.9862 30.2331 10.9862C28.0409 10.9862 26.2637 12.6701 26.2637 14.7474C26.2637 16.8246 28.0409 18.5085 30.2331 18.5085Z" fill="#ED6C02"/>
</svg>
