<svg width="20" height="20" viewBox="0 0 20 20" fill="none" xmlns="http://www.w3.org/2000/svg">
<path d="M8.74824 13.7357C9.12056 13.7357 9.42239 13.4372 9.42239 13.069C9.42239 12.7008 9.12056 12.4023 8.74824 12.4023V13.7357ZM4.02864 12.4023C3.65632 12.4023 3.35449 12.7008 3.35449 13.069C3.35449 13.4372 3.65632 13.7357 4.02864 13.7357V12.4023ZM8.74824 12.4023H4.02864V13.7357H8.74824V12.4023Z" fill="#1AADB6"/>
<path d="M10.8538 5.22266C10.4815 5.22266 10.1797 5.52113 10.1797 5.88932C10.1797 6.25751 10.4815 6.55599 10.8538 6.55599V5.22266ZM15.5734 6.55599C15.9458 6.55599 16.2476 6.25751 16.2476 5.88932C16.2476 5.52113 15.9458 5.22266 15.5734 5.22266V6.55599ZM10.8538 6.55599H15.5734V5.22266H10.8538V6.55599Z" fill="#1AADB6"/>
<path d="M8.22157 6.15463C8.22157 4.8222 7.12256 3.75 5.77729 3.75V5.08333C6.38704 5.08333 6.87326 5.56757 6.87326 6.15463H8.22157ZM5.77729 3.75C4.43203 3.75 3.33301 4.8222 3.33301 6.15463H4.68131C4.68131 5.56757 5.16754 5.08333 5.77729 5.08333V3.75ZM3.33301 6.15463C3.33301 7.48706 4.43203 8.55926 5.77729 8.55926V7.22592C5.16754 7.22592 4.68131 6.74168 4.68131 6.15463H3.33301ZM5.77729 8.55926C7.12256 8.55926 8.22157 7.48706 8.22157 6.15463H6.87326C6.87326 6.74168 6.38704 7.22592 5.77729 7.22592V8.55926Z" fill="#1AADB6"/>
<path d="M16.6659 13.346C16.6659 12.0139 15.5678 10.9414 14.2222 10.9414V12.2747C14.8317 12.2747 15.3176 12.7587 15.3176 13.346H16.6659ZM14.2222 10.9414C12.8765 10.9414 11.7773 12.0135 11.7773 13.346H13.1256C13.1256 12.7591 13.6117 12.2747 14.2222 12.2747V10.9414ZM11.7773 13.346C11.7773 14.6786 12.8765 15.7507 14.2222 15.7507V14.4173C13.6117 14.4173 13.1256 13.9329 13.1256 13.346H11.7773ZM14.2222 15.7507C15.5678 15.7507 16.6659 14.6782 16.6659 13.346H15.3176C15.3176 13.9334 14.8317 14.4173 14.2222 14.4173V15.7507Z" fill="#1AADB6"/>
</svg>
