<svg width="30" height="38" viewBox="0 0 30 38" fill="none" xmlns="http://www.w3.org/2000/svg">
<path d="M20.25 24.7C20.0511 24.7 19.8603 24.8001 19.7197 24.9782C19.579 25.1564 19.5 25.398 19.5 25.65C19.5 25.902 19.579 26.1436 19.7197 26.3218C19.8603 26.4999 20.0511 26.6 20.25 26.6H23.25C23.4489 26.6 23.6397 26.4999 23.7803 26.3218C23.921 26.1436 24 25.902 24 25.65C24 25.398 23.921 25.1564 23.7803 24.9782C23.6397 24.8001 23.4489 24.7 23.25 24.7H20.25ZM3 12.825C3 11.4392 3.4346 10.1102 4.20818 9.13037C4.98177 8.15049 6.03098 7.6 7.125 7.6H22.875C23.969 7.6 25.0182 8.15049 25.7918 9.13037C26.5654 10.1102 27 11.4392 27 12.825V25.175C27 26.5608 26.5654 27.8898 25.7918 28.8696C25.0182 29.8495 23.969 30.4 22.875 30.4H7.125C6.03098 30.4 4.98177 29.8495 4.20818 28.8696C3.4346 27.8898 3 26.5608 3 25.175V12.825ZM7.125 9.5C6.42881 9.5 5.76113 9.85031 5.26884 10.4739C4.77656 11.0974 4.5 11.9432 4.5 12.825V15.2H25.5V12.825C25.5 11.9432 25.2234 11.0974 24.7312 10.4739C24.2389 9.85031 23.5712 9.5 22.875 9.5H7.125ZM25.5 17.1H4.5V25.175C4.5 27.0104 5.676 28.5 7.125 28.5H22.875C23.5712 28.5 24.2389 28.1497 24.7312 27.5261C25.2234 26.9026 25.5 26.0568 25.5 25.175V17.1Z" fill="#ED6C02"/>
</svg>
