<svg width="12" height="9" viewBox="0 0 12 9" fill="none" xmlns="http://www.w3.org/2000/svg">
<path d="M2.56066 3.43934C1.97488 2.85355 1.02513 2.85355 0.439342 3.43934C-0.146447 4.02513 -0.146447 4.97487 0.439342 5.56066L2.56066 3.43934ZM4.5 7.5L3.43934 8.56066C4.02513 9.14645 4.97487 9.14645 5.56066 8.56066L4.5 7.5ZM11.5607 2.56066C12.1464 1.97488 12.1464 1.02513 11.5607 0.439342C10.9749 -0.146447 10.0251 -0.146447 9.43934 0.439342L11.5607 2.56066ZM0.439342 5.56066L3.43934 8.56066L5.56066 6.43934L2.56066 3.43934L0.439342 5.56066ZM5.56066 8.56066L11.5607 2.56066L9.43934 0.439342L3.43934 6.43934L5.56066 8.56066Z" fill="white"/>
</svg>
