<svg width="30" height="35" viewBox="0 0 30 35" fill="none" xmlns="http://www.w3.org/2000/svg">
<path d="M21.16 4.34845H25.5771C26.5143 4.34845 27.4131 4.71794 28.0757 5.37565C28.7384 6.03335 29.1107 6.9254 29.1107 7.85553V30.6516C29.1107 31.5817 28.7384 32.4737 28.0757 33.1315C27.4131 33.7892 26.5143 34.1587 25.5771 34.1587H4.37516C3.43798 34.1587 2.53918 33.7892 1.87649 33.1315C1.2138 32.4737 0.84151 31.5817 0.84151 30.6516V7.85553C0.84151 6.9254 1.2138 6.03335 1.87649 5.37565C2.53918 4.71794 3.43798 4.34845 4.37516 4.34845H8.79223" stroke="#5B5A5A" stroke-width="1.66667" stroke-linecap="round" stroke-linejoin="round"/>
<path d="M9.00651 3.49797C9.19759 2.73925 9.63872 2.06569 10.2598 1.58434C10.8808 1.10299 11.6462 0.841474 12.4341 0.841356H17.5173C18.3053 0.841474 19.0706 1.10299 19.6917 1.58434C20.3127 2.06569 20.7539 2.73925 20.9449 3.49797L22.0439 7.85552H7.90931L9.00651 3.49797Z" stroke="#5B5A5A" stroke-width="1.66667" stroke-linecap="round" stroke-linejoin="round"/>
<path d="M9.67515 18.3768H20.2761M9.67515 25.3909H20.2761" stroke="#5B5A5A" stroke-width="1.66667" stroke-linecap="round"/>
</svg>
