<svg width="28" height="22" viewBox="0 0 28 22" fill="none" xmlns="http://www.w3.org/2000/svg">
<path d="M26.8951 15.5966H8.30855L9.24178 13.9358L24.7477 13.9112C25.2721 13.9112 25.7215 13.584 25.8152 13.1313L27.9625 2.62898C28.0187 2.35354 27.9345 2.06991 27.7285 1.85447C27.6266 1.74844 27.4997 1.66303 27.3563 1.60416C27.2129 1.5453 27.0566 1.51439 26.8982 1.51357L7.17244 1.4563L7.0039 0.763605C6.89778 0.321805 6.44209 0 5.92398 0H1.10177C0.809564 0 0.529324 0.101426 0.322702 0.281965C0.116079 0.462503 0 0.707367 0 0.962688C0 1.21801 0.116079 1.46287 0.322702 1.64341C0.529324 1.82395 0.809564 1.92538 1.10177 1.92538H5.03132L5.76792 4.98525L7.58132 12.6567L5.24668 15.9866C5.12544 16.1296 5.05242 16.2994 5.03587 16.4767C5.01932 16.6541 5.05991 16.832 5.15305 16.9902C5.34032 17.3147 5.71798 17.5193 6.13622 17.5193H8.09631C7.67844 18.0042 7.45274 18.5949 7.45335 19.2019C7.45335 20.7455 8.88909 22 10.6557 22C12.4222 22 13.858 20.7455 13.858 19.2019C13.858 18.5938 13.627 18.002 13.215 17.5193H18.2432C17.8254 18.0042 17.5997 18.5949 17.6003 19.2019C17.6003 20.7455 19.036 22 20.8026 22C22.5692 22 24.0049 20.7455 24.0049 19.2019C24.0049 18.5938 23.7739 18.002 23.3619 17.5193H26.8982C27.5037 17.5193 28 17.0884 28 16.5566C27.9982 16.3015 27.881 16.0575 27.674 15.8776C27.467 15.6978 27.187 15.5968 26.8951 15.5966ZM7.63126 3.35441L25.6029 3.40622L23.8426 12.0186L9.72556 12.0404L7.63126 3.35441ZM10.6557 20.0637C10.1126 20.0637 9.66938 19.6765 9.66938 19.2019C9.66938 18.7274 10.1126 18.3402 10.6557 18.3402C11.1988 18.3402 11.642 18.7274 11.642 19.2019C11.642 19.4305 11.538 19.6497 11.3531 19.8113C11.1681 19.9729 10.9172 20.0637 10.6557 20.0637ZM20.8026 20.0637C20.2595 20.0637 19.8163 19.6765 19.8163 19.2019C19.8163 18.7274 20.2595 18.3402 20.8026 18.3402C21.3457 18.3402 21.7889 18.7274 21.7889 19.2019C21.7889 19.4305 21.685 19.6497 21.5 19.8113C21.315 19.9729 21.0642 20.0637 20.8026 20.0637Z" fill="#ED6C02"/>
</svg>
