<svg width="24" height="24" viewBox="0 0 24 24" fill="none" xmlns="http://www.w3.org/2000/svg">
<path d="M11.9848 14.4023C10.2198 14.4023 8.50481 14.536 7.21028 14.9793C6.55958 15.2022 5.96467 15.5197 5.52635 15.9845C5.07192 16.4663 4.81445 17.0775 4.81445 17.802H6.17239C6.17239 17.4437 6.28868 17.1753 6.50431 16.9467C6.73604 16.701 7.10747 16.4774 7.64195 16.2944C8.71778 15.926 10.2485 15.7893 11.9848 15.7893V14.4023ZM4.81445 17.802C4.81445 18.5249 5.06962 19.1365 5.52144 19.6201C5.95761 20.087 6.55041 20.4076 7.20047 20.6333C8.49346 21.0823 10.2092 21.2209 11.9848 21.2209V19.834C10.2401 19.834 8.71016 19.6926 7.63754 19.3202C7.10479 19.1352 6.7348 18.9098 6.50388 18.6626C6.28861 18.4322 6.17239 18.1617 6.17239 17.802H4.81445ZM11.9848 21.2209C13.7499 21.2209 15.4647 21.087 16.759 20.6436C17.4096 20.4207 18.0044 20.1031 18.4426 19.6384C18.8968 19.1567 19.1543 18.5456 19.1543 17.8213H17.7964C17.7964 18.1794 17.6801 18.4476 17.4646 18.6762C17.2329 18.9219 16.8616 19.1455 16.3272 19.3286C15.2516 19.6971 13.721 19.834 11.9848 19.834V21.2209ZM19.1543 17.8213C19.1543 17.0986 18.8992 16.4871 18.4474 16.0036C18.0115 15.5368 17.4188 15.2161 16.7688 14.9903C15.476 14.5412 13.7605 14.4023 11.9848 14.4023V15.7893C13.7294 15.7893 15.2592 15.9309 16.3316 16.3034C16.8642 16.4884 17.2341 16.7139 17.465 16.961C17.6802 17.1914 17.7964 17.4618 17.7964 17.8213H19.1543Z" fill="#9E9E9E"/>
<path d="M7.79119 7.72388L8.43783 7.72612V7.72388H7.79119ZM11.9228 11.9737L11.9206 12.6342H11.9228V11.9737ZM11.9521 12.6342C14.6071 12.6342 16.7588 10.4353 16.7588 7.72388H15.4655C15.4655 9.70613 13.8925 11.3133 11.9521 11.3133V12.6342ZM16.7588 7.72388C16.7588 5.01227 14.6069 2.81445 11.9521 2.81445V4.13537C13.8927 4.13537 15.4655 5.7418 15.4655 7.72388H16.7588ZM11.9521 2.81445C9.29742 2.81445 7.14456 5.0121 7.14456 7.72388H8.43783C8.43783 5.74198 10.0113 4.13537 11.9521 4.13537V2.81445ZM7.14456 7.72164C7.13559 10.4251 9.2742 12.625 11.9206 12.6342L11.925 11.3133C9.99316 11.3066 8.43128 9.70043 8.43783 7.72612L7.14456 7.72164ZM11.9228 12.6342H11.9521V11.3133H11.9228V12.6342Z" fill="#9E9E9E"/>
</svg>
